# xmcd
#
# Track frame offsets:
#	150
#	16496
#	36095
#	60280
#	79919
#	99501
#	122742
#	140755
#	166558
#	189525
#	205661
#	221265
#
# Disc length: 3153 seconds
#
# Revision: 7
# Processed by: cddbd v1.5.2PL0 Copyright (c) Steve Scherf et al.
# Submitted via: EasyCDDAExtractor 15.3.0.1
#
DISCID=990c4f0c
DTITLE=Ednita Nazario - Acustico
DYEAR=2002
DGENRE=Latin
TTITLE0=Eres Libre
TTITLE1=Tu, Sin Mi
TTITLE2=Tu Sabes Bien
TTITLE3=Ahora Es Tarde Ya
TTITLE4=Hielo Bajo El Sol
TTITLE5=Medley (El Dolor De Tu Presencia, Un Corazon Hecho Pedazos)
TTITLE6=Lloviendo Flores
TTITLE7=Mas Grande Que Grande
TTITLE8=Medley (Por Ti Me Casare, Mi Pequeño Amor)
TTITLE9=No Voy A Llorar
TTITLE10=Tanto Que Te Di
TTITLE11=No Me Mires Asi
EXTD=
EXTT0=
EXTT1=
EXTT2=
EXTT3=
EXTT4=
EXTT5=
EXTT6=
EXTT7=
EXTT8=
EXTT9=
EXTT10=
EXTT11=
PLAYORDER=
